<?xml version="1.0" encoding="utf-8"?>
<!-- Designed by Vexels.com - 2020 All Rights Reserved - https://vexels.com/terms-and-conditions/  -->
<svg version="1.1" id="Layer_1" xmlns="http://www.w3.org/2000/svg" xmlns:xlink="http://www.w3.org/1999/xlink" x="0px" y="0px"
	 viewBox="0 0 1200 1200" enable-background="new 0 0 1200 1200" xml:space="preserve">
<g>
	<path fill="#EB545D" d="M1149.818,419.379c2.682-41.141-24.651-76.419-61.05-78.792c-2.025-0.132-4.034-0.161-6.022-0.085
		c-3.233,0.115-6.418,0.498-9.531,1.133c-3.22,0.65-6.366,1.57-9.422,2.73c-0.002,0.001-0.008-0.001-0.01,0
		c-0.011,0.004-0.04,0.016-0.078,0.031c-1.438,0.548-2.853,1.155-4.248,1.809c-19.418,8.305-97.525,41.871-97.525,41.871
		l26.191,139.123l113.404-40.515c1.034-0.342,2.063-0.702,3.078-1.1c3.238-1.26,6.363-2.797,9.366-4.588
		c2.76-1.644,5.408-3.501,7.93-5.552C1137.543,462.747,1148.303,442.612,1149.818,419.379z"/>
	<path fill="#F2A661" d="M1010.38,370.569c-2.123-0.26-4.234-0.41-6.329-0.45c-3.408-0.072-6.781,0.14-10.094,0.622
		c-10.305,1.479-20.061,5.521-28.685,11.572c-1.62,0.105-3.229,0.271-4.824,0.503c-12.548,1.8-24.286,7.394-34.151,15.802
		c-2.979-0.002-5.93,0.201-8.833,0.623c-14.142,2.029-27.261,8.867-37.822,19.135c-12.855,12.496-21.913,30.086-24.39,50.307
		c-2.62,21.387,2.613,41.689,13.204,57.299c10.766,15.868,27.071,26.883,46.302,29.239c5.945,0.728,11.815,0.585,17.514-0.339
		c3.264-0.522,6.471-1.307,9.604-2.334c3.481-1.131,6.861-2.561,10.127-4.266c3.002-1.565,5.899-3.359,8.674-5.366
		c1.598-1.153,3.155-2.376,4.668-3.666c3.347-0.002,6.658-0.265,9.911-0.793c3.264-0.522,6.471-1.307,9.604-2.334
		c3.481-1.131,6.861-2.561,10.127-4.266c2.718-1.417,5.345-3.032,7.879-4.813c1.983-0.13,3.952-0.347,5.9-0.663
		c3.264-0.522,6.471-1.308,9.604-2.334c3.481-1.131,6.861-2.561,10.127-4.266c3.002-1.565,5.899-3.36,8.674-5.366
		c17.214-12.42,29.739-32.958,32.722-57.308C1075.172,413.989,1048.529,375.242,1010.38,370.569z"/>
	<path fill="#019798" d="M960.34,497.442c-2.983,24.35-15.508,44.888-32.722,57.308l-28.404,11.966L244.976,842.322l-10.127,4.266
		c-8.598,2.812-17.768,3.818-27.118,2.673c-19.23-2.356-35.535-13.371-46.301-29.239l4.39-59.739
		c3.472-28.342,20.186-53.095,44.618-67.003c3.234-1.847,6.606-3.5,10.101-4.945L846.584,430.21l47.916-19.757
		c2.095,0.04,4.207,0.19,6.329,0.45C938.979,415.577,965.622,454.324,960.34,497.442z"/>
	<path fill="#F29681" d="M286.371,779.647c-3.464,28.279-19.798,51.417-41.396,62.674c-3.266,1.705-6.645,3.135-10.127,4.266
		c-1.772,0.582-3.574,1.081-5.391,1.504c-0.005-0.001-0.01,0.004-0.015,0.003c-0.015,0.003-0.025,0.007-0.025,0.007
		s-0.01-0.001-0.015,0.003c-0.34,0.077-0.684,0.153-1.023,0.225c-6.107,1.313-12.438,1.725-18.863,1.125
		c-0.005-0.001-0.005-0.001-0.01-0.001c-30.014,2.042-86.908,5.908-120.686,8.214c-14.995,1.023-25.436,1.74-26.948,1.851
		c-6.298,0.461-9.598-6.569-11.841-16.552c-0.58-2.59,7.089-12.31,18.776-25.289c33.213-36.891,98.864-100.119,99.546-100.775
		c0.005-0.004,0.005-0.004,0.005-0.004c3.926-4.479,8.296-8.44,13.016-11.791c8.717-6.199,18.61-10.327,29.063-11.827
		c5.355-0.774,10.857-0.854,16.424-0.172C265.01,697.783,291.653,736.529,286.371,779.647z"/>
	<g>
		<path fill="#31353E" d="M280.192,707.984c-0.009-0.024,0.365-0.198,1.13-0.528c0.768-0.322,1.924-0.807,3.475-1.457
			c3.115-1.273,7.818-3.194,14.172-5.79c12.726-5.148,32.066-12.97,58.521-23.67c52.942-21.324,134.363-54.117,248.281-100
			c113.97-45.752,195.56-78.118,248.822-98.633c26.628-10.264,46.168-17.58,59.108-22.187c12.939-4.608,19.277-6.509,19.495-5.959
			c0.217,0.55-5.706,3.498-18.298,8.986c-12.591,5.488-31.85,13.516-58.296,24.239c-52.888,21.46-134.547,53.651-248.985,98.221
			c-114.489,44.439-196.318,76.201-249.525,96.854c-26.619,10.287-46.077,17.807-58.883,22.756
			c-6.411,2.452-11.156,4.266-14.299,5.469c-1.576,0.586-2.751,1.023-3.532,1.314C280.594,707.88,280.202,708.008,280.192,707.984z"
			/>
	</g>
	<g>
		<path fill="#31353E" d="M295.305,798.834c-0.148-0.377,92.785-37.279,309.457-122.49s309.846-121.501,309.994-121.123
			c0.148,0.377-92.785,37.279-309.457,122.49C388.628,762.921,295.454,799.211,295.305,798.834z"/>
	</g>
	<g>
		<path fill="#E8E5DE" d="M927.111,403.191c-0.011,0.212-0.608,0.34-1.8,0.773c-0.593,0.22-1.33,0.507-2.184,0.916
			c-0.427,0.196-0.881,0.435-1.363,0.684c-0.481,0.26-0.985,0.547-1.513,0.855c-0.514,0.313-0.992,0.603-1.435,0.872
			c-0.431,0.271-0.831,0.493-1.198,0.691c-0.74,0.383-1.374,0.618-1.969,0.683c-1.171,0.14-2.214-0.37-2.925-1.337
			c-0.695-0.943-0.847-2.185,0.101-3.339c0.471-0.57,1.207-1.118,2.224-1.54c0.505-0.219,1.084-0.394,1.719-0.546
			c0.639-0.142,1.341-0.246,2.096-0.307c0.758-0.051,1.46-0.052,2.104-0.022c0.647,0.041,1.233,0.097,1.765,0.183
			c1.063,0.158,1.902,0.382,2.55,0.572C926.575,402.733,927.121,403.008,927.111,403.191z"/>
	</g>
	<g>
		<path fill="#E8E5DE" d="M967.615,386.883c0.015,0.219-1.234,0.439-3.842,1.153c-1.301,0.364-2.94,0.84-4.9,1.529
			c-0.983,0.331-2.04,0.735-3.182,1.168c-0.566,0.227-1.155,0.464-1.766,0.71c-0.604,0.257-1.23,0.524-1.88,0.8
			c-0.642,0.287-1.26,0.565-1.856,0.832c-0.59,0.274-1.157,0.537-1.703,0.79c-1.083,0.509-2.078,0.977-2.99,1.406
			c-0.92,0.404-1.738,0.804-2.51,1.097c-0.755,0.326-1.454,0.57-2.084,0.765c-2.509,0.789-4.082,0.572-4.715-0.457
			c-0.612-0.992-0.104-2.601,2.151-4.366c1.127-0.873,2.681-1.792,4.715-2.629c1.011-0.431,2.15-0.821,3.396-1.208
			c0.629-0.173,1.284-0.352,1.964-0.539c0.687-0.155,1.4-0.315,2.14-0.482c0.745-0.134,1.463-0.264,2.155-0.388
			c0.695-0.097,1.364-0.19,2.007-0.279c1.29-0.143,2.472-0.256,3.559-0.308c1.081-0.079,2.07-0.071,2.95-0.099
			c0.886,0.01,1.671,0.012,2.362,0.036c1.383,0.057,2.385,0.125,3.047,0.215C967.293,386.708,967.609,386.782,967.615,386.883z"/>
	</g>
	<g>
		<path fill="#E8E5DE" d="M1016.028,377.58c-0.028,0.097-0.407,0.098-1.164,0.031c-0.38-0.039-0.853-0.087-1.424-0.145
			c-0.575-0.04-1.249-0.086-2.027-0.14c-0.777-0.04-1.661-0.044-2.64-0.072c-0.988,0.043-2.069,0.01-3.261,0.121
			c-1.189,0.059-2.479,0.213-3.867,0.379c-0.69,0.108-1.407,0.219-2.153,0.336c-0.737,0.145-1.501,0.296-2.293,0.452
			c-0.781,0.186-1.535,0.366-2.26,0.539c-0.716,0.196-1.405,0.385-2.067,0.567c-1.311,0.403-2.512,0.753-3.597,1.123
			c-1.101,0.32-2.064,0.707-2.973,0.951c-0.883,0.311-1.697,0.531-2.422,0.72c-0.718,0.204-1.367,0.337-1.947,0.405
			c-0.573,0.083-1.069,0.118-1.504,0.08c-0.866-0.071-1.464-0.388-1.759-0.902c-0.295-0.513-0.254-1.175,0.209-1.962
			c0.233-0.391,0.566-0.825,1.022-1.265c0.464-0.426,1.043-0.874,1.744-1.342c0.707-0.452,1.552-0.882,2.515-1.339
			c0.986-0.389,2.077-0.857,3.335-1.184c1.244-0.377,2.637-0.66,4.153-0.92c0.763-0.095,1.557-0.194,2.382-0.297
			c0.828-0.051,1.686-0.104,2.577-0.16c0.889-0.001,1.746-0.003,2.573-0.004c0.822,0.046,1.613,0.09,2.374,0.132
			c1.515,0.148,2.896,0.308,4.146,0.546c1.253,0.187,2.369,0.502,3.372,0.716c0.995,0.285,1.877,0.523,2.643,0.771
			c0.756,0.266,1.412,0.496,1.971,0.692c0.55,0.214,0.994,0.414,1.346,0.57C1015.733,377.297,1016.056,377.483,1016.028,377.58z"/>
	</g>
	<g>
		<path fill="#31353E" d="M987.311,522.457c-0.042-0.028,0.108-0.352,0.448-0.986c0.174-0.315,0.391-0.709,0.653-1.184
			c0.248-0.483,0.539-1.049,0.872-1.699c0.657-1.304,1.432-2.971,2.274-5.03c0.832-2.065,1.707-4.532,2.558-7.427
			c0.852-2.896,1.665-6.223,2.414-9.997c0.755-3.769,1.43-8.001,2.1-12.672c0.657-4.661,1.267-9.739,1.38-15.171
			c0.096-5.437-0.349-11.177-2.063-17.01c-1.71-5.869-4.238-11.138-6.755-15.974c-2.517-4.813-5.092-8.983-7.708-12.502
			c-2.611-3.52-5.266-6.399-7.85-8.689c-2.559-2.297-5.103-4.036-7.42-5.412c-2.329-1.362-4.451-2.357-6.305-3.129
			c-1.856-0.762-3.446-1.357-4.75-1.817c-1.301-0.483-2.318-0.91-3.02-1.328c-0.703-0.428-1.096-0.899-1.139-1.4
			c-0.043-0.501,0.267-1.009,1-1.514c0.73-0.514,1.891-0.972,3.515-1.27c1.625-0.32,3.711-0.396,6.215-0.114
			c2.499,0.291,5.405,0.999,8.553,2.319c3.135,1.333,6.524,3.265,9.863,6.025c3.34,2.731,6.574,6.224,9.527,10.394
			c2.957,4.167,5.622,8.993,8.001,14.336c2.35,5.315,4.698,11.304,6.072,18.206c0.687,3.443,1.009,6.869,1.052,10.1
			c0.047,3.239-0.164,6.317-0.512,9.226c-0.713,5.82-1.908,10.979-3.079,15.626c-1.184,4.638-2.332,8.829-3.517,12.579
			c-1.179,3.749-2.375,7.047-3.555,9.899c-1.182,2.852-2.333,5.264-3.393,7.266c-1.072,1.998-2.028,3.597-2.833,4.836
			c-0.41,0.613-0.766,1.147-1.07,1.603c-0.327,0.439-0.598,0.803-0.815,1.094C987.585,522.218,987.353,522.486,987.311,522.457z"/>
	</g>
	<g>
		<path fill="#31353E" d="M1014.361,520.206c-0.073-0.07,0.814-1.196,2.7-3.471c0.896-1.177,2.018-2.666,3.319-4.507
			c0.62-0.942,1.294-1.967,2.024-3.077c0.71-1.12,1.396-2.376,2.174-3.691c0.777-1.316,1.459-2.804,2.266-4.336
			c0.762-1.556,1.48-3.251,2.265-5.023c1.419-3.614,2.912-7.653,4.071-12.244c1.171-4.581,2.16-9.657,2.746-15.226
			c0.591-5.566,0.752-11.626,0.324-18.097c-0.865-12.968-3.941-23.716-7.968-31.939c-1.987-4.139-4.243-7.611-6.477-10.601
			c-2.257-2.97-4.525-5.409-6.64-7.434c-2.124-2.015-4.078-3.654-5.821-4.946c-0.861-0.664-1.679-1.225-2.406-1.765
			c-0.746-0.519-1.414-0.983-2.005-1.395c-0.601-0.401-1.121-0.772-1.559-1.111c-0.445-0.321-0.814-0.6-1.096-0.859
			c-0.566-0.514-0.8-0.916-0.7-1.194c0.1-0.278,0.529-0.421,1.32-0.407c0.394,0.009,0.882,0.049,1.456,0.145
			c0.566,0.115,1.224,0.276,1.975,0.486c0.75,0.213,1.564,0.534,2.485,0.882c0.897,0.39,1.898,0.825,2.946,1.389
			c2.122,1.091,4.483,2.633,7.009,4.672c2.516,2.048,5.175,4.627,7.765,7.849c2.561,3.23,5.108,7.099,7.246,11.645
			c4.351,9.06,7.223,20.78,7.484,34.365c0.282,13.619-2.072,25.16-5.063,34.43c-1.484,4.655-3.282,8.712-4.972,12.312
			c-0.921,1.767-1.766,3.447-2.648,4.984c-0.927,1.513-1.721,2.976-2.601,4.264c-0.882,1.286-1.663,2.51-2.461,3.597
			c-0.818,1.071-1.573,2.061-2.267,2.971c-1.449,1.768-2.693,3.182-3.694,4.285C1015.46,519.287,1014.434,520.276,1014.361,520.206z
			"/>
	</g>
	<g>
		<path fill="#E8E5DE" d="M398.494,679.127c0.035,0.095-0.92,0.548-2.936,1.422c-2.015,0.877-5.092,2.166-9.309,3.914
			c-8.441,3.475-21.426,8.833-39.803,15.791c-18.382,6.944-31.715,11.371-40.558,13.688c-8.84,2.328-13.182,2.576-13.537,1.45
			c-0.359-1.139,3.344-3.396,11.863-6.65c8.513-3.278,21.856-7.509,40.609-13.237c18.751-5.772,32.151-9.896,40.869-12.58
			c4.356-1.35,7.54-2.337,9.641-2.989C397.437,679.303,398.459,679.032,398.494,679.127z"/>
	</g>
	<g>
		<path fill="#E8E5DE" d="M932.755,459.944c0.007,0.219-1.29,0.395-4.018,1.006c-1.361,0.313-3.078,0.722-5.142,1.326
			c-1.033,0.289-2.15,0.647-3.356,1.028c-1.203,0.398-2.491,0.845-3.864,1.342c-1.37,0.511-2.628,0.999-3.789,1.45
			c-1.156,0.455-2.219,0.873-3.192,1.255c-1.95,0.741-3.552,1.304-4.885,1.618c-2.649,0.65-4.241,0.332-4.794-0.74
			c-0.536-1.036,0.128-2.618,2.576-4.252c1.223-0.808,2.883-1.637,5.026-2.362c1.067-0.375,2.259-0.704,3.563-1.025
			c1.309-0.306,2.734-0.578,4.276-0.812c1.544-0.219,2.982-0.369,4.313-0.469c1.334-0.084,2.556-0.143,3.676-0.149
			c2.237-0.034,4.052,0.063,5.474,0.158C931.462,459.54,932.751,459.766,932.755,459.944z"/>
	</g>
	<g>
		<path fill="#E8E5DE" d="M645.581,524.738c0.01,0.023-0.213,0.142-0.672,0.359c-0.463,0.21-1.158,0.524-2.091,0.946
			c-1.88,0.817-4.717,2.049-8.549,3.714c-7.686,3.286-19.364,8.28-35.339,15.11c-31.968,13.621-81.117,34.607-149.99,63.707
			c-68.873,29.1-118.236,49.567-150.551,62.348c-32.307,12.798-47.551,17.946-48.003,16.849c-0.453-1.097,13.987-8.195,45.92-21.898
			c31.927-13.72,81.362-34.012,150.72-61.938c69.358-27.925,119.007-47.698,151.28-60.579c16.144-6.42,27.946-11.113,35.714-14.201
			c3.891-1.522,6.772-2.648,8.681-3.394c0.959-0.358,1.674-0.625,2.15-0.803C645.33,524.788,645.572,524.715,645.581,524.738z"/>
	</g>
	<path fill="#019798" d="M286.371,779.647c-3.464,28.279-19.798,51.417-41.396,62.674c-3.266,1.705-6.645,3.135-10.127,4.266
		c-1.772,0.582-3.574,1.081-5.391,1.504c-0.005-0.001-0.01,0.004-0.015,0.003c-0.015,0.003-0.025,0.007-0.025,0.007
		s-0.01-0.001-0.015,0.003c-0.34,0.077-0.684,0.153-1.023,0.225c9.447-8.737,17.774-19.244,20.043-31.804
		c0.578-3.188,0.686-6.685-1.023-9.434c-3.364-5.421-11.273-4.931-17.548-3.772c9.473-8.103,16.031-19.783,17.094-32.2
		c1.058-12.418-3.673-25.397-13.084-33.57c-9.412-8.169-23.434-10.976-34.968-6.251c5.534-5.495,11.36-11.56,12.473-19.277
		c0.296-2.054,0.139-4.396-1.349-5.85c-1.106-1.077-2.714-1.427-4.236-1.682c-8.074-1.344-16.404-1.117-24.406,0.619
		c8.717-6.199,18.61-10.327,29.063-11.827c5.355-0.774,10.857-0.854,16.424-0.172C265.01,697.783,291.653,736.529,286.371,779.647z"
		/>
	<path fill="#31353E" d="M89.226,855.962c-0.119,0.572-0.258,1.142-0.406,1.705c-14.995,1.023-25.436,1.74-26.948,1.851
		c-6.298,0.461-9.598-6.569-11.841-16.552c-0.58-2.59,7.089-12.31,18.776-25.289c5.006,0.268,9.896,1.764,13.854,4.547
		C91.695,828.562,91.242,846.388,89.226,855.962z"/>
</g>
</svg>
